<?xml version="1.0" ?><svg viewBox="0 0 64 64" xmlns="http://www.w3.org/2000/svg"><defs><style>.cls-1{fill:#f8cf6d;}.cls-2{fill:#0c3798;}.cls-3{fill:#88b8f9;}.cls-4{fill:#2f79f0;}.cls-5{fill:#ee7231;}</style></defs><title/><g data-name="20. Travel" id="_20._Travel"><path class="cls-1" d="M40,41a1,1,0,0,1-1-1V24a1,1,0,0,1,2,0V40A1,1,0,0,1,40,41Z"/><circle class="cls-2" cx="42" cy="62" r="2"/><circle class="cls-2" cx="54" cy="62" r="2"/><circle class="cls-3" cx="23" cy="7" r="7"/><path class="cls-4" d="M33.42,64A3,3,0,0,1,30,61.56l-2.1-11.17-5-6.39H20l.22,8a3.12,3.12,0,0,1-.82,2.17l-8.1,8.76a3.11,3.11,0,0,1-4.2.43,3,3,0,0,1-.4-4.29l7-8.11-.55-10A21.54,21.54,0,0,1,13.26,37l2-15a6.93,6.93,0,0,1,7.53-6A7.08,7.08,0,0,1,29,23.17v0L25.67,20,25.59,20l-.24-.2a4,4,0,0,0-5,6.29l8.43,6.71a.91.91,0,0,0,.16.11v7.72L33.62,47l.08.12a2.94,2.94,0,0,1,.53,1.3L36,60.57A3,3,0,0,1,33.42,64Z"/><path class="cls-4" d="M41.39,26.08l-9,6A2.51,2.51,0,0,1,29.45,32l-.1-.08L21,25.26a3,3,0,0,1,3.74-4.7,1.92,1.92,0,0,1,.22.18l6.3,6.06,7.33-4.88a2.5,2.5,0,0,1,2.78,4.16Z"/><rect class="cls-5" height="24" rx="2" width="20" x="38" y="38"/><path class="cls-1" d="M43,56a1,1,0,0,1-1-1V45a1,1,0,0,1,2,0V55A1,1,0,0,1,43,56Z"/><path class="cls-1" d="M48,56a1,1,0,0,1-1-1V45a1,1,0,0,1,2,0V55A1,1,0,0,1,48,56Z"/><path class="cls-1" d="M53,56a1,1,0,0,1-1-1V45a1,1,0,0,1,2,0V55A1,1,0,0,1,53,56Z"/><path class="cls-1" d="M53,5H51.86a4.17,4.17,0,0,0-.43-1l.81-.81a1,1,0,0,0-1.41-1.41L50,2.57a4.17,4.17,0,0,0-1-.43V1a1,1,0,0,0-2,0V2.14a4.17,4.17,0,0,0-1,.43l-.81-.81a1,1,0,0,0-1.41,1.41l.81.81a4.17,4.17,0,0,0-.43,1H43a1,1,0,0,0,0,2h1.14a4.17,4.17,0,0,0,.43,1l-.81.81a1,1,0,0,0,1.41,1.41L46,9.43a4.17,4.17,0,0,0,1,.43V11a1,1,0,0,0,2,0V9.86a4.17,4.17,0,0,0,1-.43l.81.81a1,1,0,0,0,1.41-1.41L51.43,8a4.17,4.17,0,0,0,.43-1H53a1,1,0,0,0,0-2Z"/><path class="cls-1" d="M55,30a1,1,0,0,0-1-1h-.59l.42-.41a1,1,0,0,0-1.42-1.42l-.41.42V27a1,1,0,0,0-2,0v.59l-.41-.42a1,1,0,0,0-1.42,1.42l.42.41H48a1,1,0,0,0,0,2h.59l-.42.41a1,1,0,0,0,1.42,1.42l.41-.42V33a1,1,0,0,0,2,0v-.59l.41.42a1,1,0,0,0,1.42-1.42L53.41,31H54A1,1,0,0,0,55,30Z"/><path class="cls-1" d="M14,17a1,1,0,0,0-1-1h-.59l.42-.41a1,1,0,1,0-1.42-1.42l-.41.42V14a1,1,0,0,0-2,0v.59l-.41-.42a1,1,0,1,0-1.42,1.42l.42.41H7a1,1,0,0,0,0,2h.59l-.42.41a1,1,0,0,0,1.42,1.42L9,19.41V20a1,1,0,0,0,2,0v-.59l.41.42a1,1,0,0,0,1.42-1.42L12.41,18H13A1,1,0,0,0,14,17Z"/></g></svg>