<?xml version="1.0" encoding="utf-8"?>
<!-- Generator: Adobe Illustrator 18.1.1, SVG Export Plug-In . SVG Version: 6.00 Build 0)  -->
<svg version="1.1" id="Icons" xmlns="http://www.w3.org/2000/svg" xmlns:xlink="http://www.w3.org/1999/xlink" x="0px" y="0px"
	 viewBox="0 0 144 144" enable-background="new 0 0 144 144" xml:space="preserve">
<g id="Travel_Planning">
</g>
<g id="Globe_1_">
</g>
<g id="Map">
</g>
<g id="Flight_Date">
</g>
<g id="Alarm_Clock">
</g>
<g id="Small_Suitcase">
</g>
<g id="Backpack">
</g>
<g id="Large_Suitcase">
</g>
<g id="Toiletries">
</g>
<g id="Camera">
</g>
<g id="Phone">
</g>
<g id="Laptop">
</g>
<g id="Passport">
</g>
<g id="Taxi">
</g>
<g id="Signs">
</g>
<g id="Airport">
</g>
<g id="Wind_Sock">
</g>
<g id="Check-In">
</g>
<g id="Ticket">
</g>
<g id="Wallet">
</g>
<g id="Tag">
</g>
<g id="Escalator">
</g>
<g id="Body_Scanner">
</g>
<g id="Walking_with_Suitcase">
	<g id="XMLID_628_">
		<path id="XMLID_1068_" opacity="0.1" d="M100.001,27.999c5.667,3.667,9-5,9-5l0.396-1.451c-2.198-2.768-5.586-4.549-9.396-4.549     c-6.627,0-12,5.373-12,12C88.001,28.999,94.334,24.332,100.001,27.999z"/>
		<path id="XMLID_1067_" opacity="0.1" d="M36.923,92.921l-16.346,16.346c-0.768,0.768-0.768,2.024,0,2.792l8.424,8.44     c0.833-0.833,4.5-4,8-0.5l13.663-13.337L36.923,92.921z"/>
		
			<circle id="XMLID_1066_" fill="none" stroke="#000000" stroke-width="4" stroke-linecap="round" stroke-linejoin="round" stroke-miterlimit="10" cx="100.001" cy="28.999" r="12"/>
		
			<path id="XMLID_1065_" fill="none" stroke="#000000" stroke-width="4" stroke-linecap="round" stroke-linejoin="round" stroke-miterlimit="10" d="     M111.001,66.786l12.238,10.402c2.101,1.786,2.357,4.948,0.571,7.048c-0.952,1.12-2.341,1.763-3.813,1.763     c-1.183,0-2.332-0.423-3.235-1.19l-5.761-4.854"/>
		
			<path id="XMLID_1064_" fill="none" stroke="#000000" stroke-width="4" stroke-linecap="round" stroke-linejoin="round" stroke-miterlimit="10" d="     M111,66.999v20.349l8.834,33.372c0.706,2.665-0.889,5.407-3.554,6.112c-0.422,0.112-0.854,0.169-1.284,0.169     c-2.263,0-4.249-1.531-4.829-3.723L99.501,82.983l-10.666,40.295c-0.58,2.191-2.566,3.723-4.829,3.723     c-0.43,0-0.861-0.057-1.283-0.169c-2.666-0.705-4.261-3.447-3.555-6.112l8.833-33.372l1.999-27.349c-5.333,2.43-8.001,7-8.001,7     v12c0,2.757-2.243,5-5,5s-5-2.243-5-5v-12c0-7.547,12.795-19.978,27.101-19.978c8.837,0,11.9,5.837,11.9,11.478     C110.993,58.563,111,66.999,111,66.999z"/>
		
			<line id="XMLID_1063_" fill="none" stroke="#000000" stroke-width="4" stroke-linecap="round" stroke-linejoin="round" stroke-miterlimit="10" x1="38.001" y1="120.999" x2="75.001" y2="83.999"/>
		
			<path id="XMLID_1062_" fill="none" stroke="#000000" stroke-width="4" stroke-linecap="round" stroke-linejoin="round" stroke-miterlimit="10" d="     M29.001,121.999l-9.424-9.44c-0.768-0.768-0.768-2.024,0-2.792l22.193-22.193c0.768-0.768,2.024-0.768,2.792,0l13.44,13.424"/>
		
			<circle id="XMLID_1060_" fill="none" stroke="#000000" stroke-width="4" stroke-linecap="round" stroke-linejoin="round" stroke-miterlimit="10" cx="34.001" cy="122.999" r="4"/>
		
			<line id="XMLID_1059_" fill="none" stroke="#000000" stroke-width="4" stroke-linecap="round" stroke-linejoin="round" stroke-miterlimit="10" x1="37.001" y1="92.999" x2="51.501" y2="107.499"/>
		
			<path id="XMLID_1058_" fill="none" stroke="#000000" stroke-width="4" stroke-linecap="round" stroke-linejoin="round" stroke-miterlimit="10" d="     M88.001,28.999c0,0,6.333-4.667,12-1s9-5,9-5"/>
	</g>
</g>
<g id="Gate_Number">
</g>
<g id="Seats">
</g>
<g id="Seat_Belt">
</g>
<g id="Take_Off">
</g>
<g id="Plane_Window">
</g>
<g id="International_Travel">
</g>
<g id="Meal">
</g>
<g id="Landing">
</g>
<g id="Shuttle_Bus">
</g>
<g id="Hotel">
</g>
<g id="Hotel_Check-In">
</g>
<g id="Valet_1_">
</g>
<g id="Baggage_Trolley">
</g>
<g id="Door_Hanger">
</g>
<g id="Hotel_Room">
</g>
<g id="Shower">
</g>
</svg>
